<svg width="40" height="40" viewBox="0 0 40 40" fill="none" xmlns="http://www.w3.org/2000/svg">
<circle cx="20" cy="20" r="19" stroke="#404040" stroke-width="2"/>
<path d="M20.354 24.168C18.758 24.168 17.484 23.6033 16.532 22.474L18.016 21.06C18.716 21.844 19.5047 22.236 20.382 22.236C20.7927 22.236 21.124 22.1287 21.376 21.914C21.6373 21.69 21.768 21.3913 21.768 21.018C21.768 20.6167 21.6 20.3087 21.264 20.094C20.928 19.8793 20.4567 19.772 19.85 19.772H18.954L18.618 18.4L20.956 16.048H17.106V14.2H23.728V15.824L21.25 18.19C23.0047 18.4887 23.882 19.4127 23.882 20.962C23.882 21.9047 23.56 22.6747 22.916 23.272C22.2813 23.8693 21.4273 24.168 20.354 24.168Z" fill="#404040"/>
</svg>
