<svg width="7" height="6" viewBox="0 0 7 6" fill="none" xmlns="http://www.w3.org/2000/svg">
<path d="M3.72 5.248V3.376C3.72 2.512 3.92267 1.872 4.328 1.456C4.73333 1.02933 5.352 0.783999 6.184 0.719999L6.392 1.552C5.47467 1.712 5.016 2.16 5.016 2.896V3.04H5.848V5.248H3.72ZM0.00800002 5.248V3.376C0.00800002 2.512 0.210667 1.872 0.616 1.456C1.02133 1.02933 1.64 0.783999 2.472 0.719999L2.68 1.552C1.76267 1.712 1.304 2.14933 1.304 2.864C1.304 2.88533 1.304 2.91733 1.304 2.96C1.31467 2.992 1.32 3.01867 1.32 3.04H2.136V5.248H0.00800002Z" fill="#303030"/>
</svg>
