<svg width="213" height="63" viewBox="0 0 213 63" fill="none" xmlns="http://www.w3.org/2000/svg">
<path d="M31.2114 58H47.5918V63H26.2308V0H31.2114V58Z" fill="#3B1D8F"/>
<path d="M4.98053 0H0V63H4.98053V0Z" fill="#3B1D8F"/>
<path d="M56.4461 31.5556C56.4461 46.1111 68.2887 58 82.7876 58V63C65.411 63 51.3549 48.8889 51.3549 31.5556C51.4655 14.1111 65.5217 0 82.8982 0V5C68.2887 5 56.4461 16.8889 56.4461 31.5556Z" fill="#3B1D8F"/>
<path d="M86.4399 31.4442C86.4399 33.4442 84.8904 34.9998 82.8982 34.9998C80.906 34.9998 79.3565 33.4442 79.3565 31.4442C79.3565 29.4442 80.906 27.8887 82.8982 27.8887C84.7798 27.8887 86.4399 29.5553 86.4399 31.4442Z" fill="#3B1D8F"/>
<path d="M127.609 28H126.648V16.625H127.609V28ZM131.375 19.5469L131.406 20.9922C131.724 20.4714 132.12 20.0755 132.594 19.8047C133.068 19.5286 133.591 19.3906 134.164 19.3906C135.07 19.3906 135.745 19.6458 136.188 20.1562C136.63 20.6667 136.854 21.4323 136.859 22.4531V28H135.93V22.4453C135.924 21.6901 135.763 21.1276 135.445 20.7578C135.133 20.388 134.63 20.2031 133.938 20.2031C133.359 20.2031 132.846 20.3854 132.398 20.75C131.956 21.1094 131.628 21.5964 131.414 22.2109V28H130.484V19.5469H131.375ZM140.734 17.3828V19.5469H142.484V20.3125H140.734V25.9453C140.734 26.4141 140.818 26.763 140.984 26.9922C141.156 27.2214 141.44 27.3359 141.836 27.3359C141.992 27.3359 142.245 27.3099 142.594 27.2578L142.633 28.0234C142.388 28.112 142.055 28.1562 141.633 28.1562C140.992 28.1562 140.526 27.9714 140.234 27.6016C139.943 27.2266 139.797 26.6771 139.797 25.9531V20.3125H138.242V19.5469H139.797V17.3828H140.734ZM147.695 28.1562C146.977 28.1562 146.326 27.9792 145.742 27.625C145.164 27.2708 144.714 26.7786 144.391 26.1484C144.068 25.513 143.906 24.8021 143.906 24.0156V23.6797C143.906 22.8672 144.062 22.1354 144.375 21.4844C144.693 20.8333 145.133 20.3229 145.695 19.9531C146.258 19.5781 146.867 19.3906 147.523 19.3906C148.549 19.3906 149.362 19.7422 149.961 20.4453C150.565 21.1432 150.867 22.099 150.867 23.3125V23.8359H144.836V24.0156C144.836 24.974 145.109 25.7734 145.656 26.4141C146.208 27.0495 146.901 27.3672 147.734 27.3672C148.234 27.3672 148.674 27.276 149.055 27.0938C149.44 26.9115 149.789 26.6198 150.102 26.2188L150.688 26.6641C150 27.6589 149.003 28.1562 147.695 28.1562ZM147.523 20.1875C146.82 20.1875 146.227 20.4453 145.742 20.9609C145.263 21.4766 144.971 22.1693 144.867 23.0391H149.938V22.9375C149.911 22.125 149.68 21.4635 149.242 20.9531C148.805 20.4427 148.232 20.1875 147.523 20.1875ZM156.594 20.3438C156.396 20.3073 156.185 20.2891 155.961 20.2891C155.378 20.2891 154.883 20.4531 154.477 20.7812C154.076 21.1042 153.789 21.5755 153.617 22.1953V28H152.688V19.5469H153.602L153.617 20.8906C154.112 19.8906 154.906 19.3906 156 19.3906C156.26 19.3906 156.466 19.4245 156.617 19.4922L156.594 20.3438ZM158.969 19.5469L159 20.9922C159.318 20.4714 159.714 20.0755 160.188 19.8047C160.661 19.5286 161.185 19.3906 161.758 19.3906C162.664 19.3906 163.339 19.6458 163.781 20.1562C164.224 20.6667 164.448 21.4323 164.453 22.4531V28H163.523V22.4453C163.518 21.6901 163.357 21.1276 163.039 20.7578C162.727 20.388 162.224 20.2031 161.531 20.2031C160.953 20.2031 160.44 20.3854 159.992 20.75C159.549 21.1094 159.221 21.5964 159.008 22.2109V28H158.078V19.5469H158.969ZM172.211 28C172.117 27.7344 172.057 27.3411 172.031 26.8203C171.703 27.2474 171.284 27.5781 170.773 27.8125C170.268 28.0417 169.732 28.1562 169.164 28.1562C168.352 28.1562 167.693 27.9297 167.188 27.4766C166.688 27.0234 166.438 26.4505 166.438 25.7578C166.438 24.9349 166.779 24.2839 167.461 23.8047C168.148 23.3255 169.104 23.0859 170.328 23.0859H172.023V22.125C172.023 21.5208 171.836 21.0469 171.461 20.7031C171.091 20.3542 170.549 20.1797 169.836 20.1797C169.185 20.1797 168.646 20.3464 168.219 20.6797C167.792 21.013 167.578 21.4141 167.578 21.8828L166.641 21.875C166.641 21.2031 166.953 20.6224 167.578 20.1328C168.203 19.638 168.971 19.3906 169.883 19.3906C170.826 19.3906 171.568 19.6276 172.109 20.1016C172.656 20.5703 172.938 21.2266 172.953 22.0703V26.0703C172.953 26.888 173.039 27.5 173.211 27.9062V28H172.211ZM169.273 27.3281C169.898 27.3281 170.456 27.1771 170.945 26.875C171.44 26.5729 171.799 26.1693 172.023 25.6641V23.8047H170.352C169.419 23.8151 168.69 23.987 168.164 24.3203C167.638 24.6484 167.375 25.1016 167.375 25.6797C167.375 26.1536 167.549 26.5469 167.898 26.8594C168.253 27.1719 168.711 27.3281 169.273 27.3281ZM176.906 17.3828V19.5469H178.656V20.3125H176.906V25.9453C176.906 26.4141 176.99 26.763 177.156 26.9922C177.328 27.2214 177.612 27.3359 178.008 27.3359C178.164 27.3359 178.417 27.3099 178.766 27.2578L178.805 28.0234C178.56 28.112 178.227 28.1562 177.805 28.1562C177.164 28.1562 176.698 27.9714 176.406 27.6016C176.115 27.2266 175.969 26.6771 175.969 25.9531V20.3125H174.414V19.5469H175.969V17.3828H176.906ZM181.641 28H180.703V19.5469H181.641V28ZM180.539 17.1016C180.539 16.9245 180.596 16.776 180.711 16.6562C180.826 16.5312 180.982 16.4688 181.18 16.4688C181.378 16.4688 181.534 16.5312 181.648 16.6562C181.768 16.776 181.828 16.9245 181.828 17.1016C181.828 17.2786 181.768 17.4271 181.648 17.5469C181.534 17.6667 181.378 17.7266 181.18 17.7266C180.982 17.7266 180.826 17.6667 180.711 17.5469C180.596 17.4271 180.539 17.2786 180.539 17.1016ZM183.672 23.6484C183.672 22.8359 183.828 22.1042 184.141 21.4531C184.458 20.8021 184.904 20.2969 185.477 19.9375C186.055 19.5729 186.708 19.3906 187.438 19.3906C188.562 19.3906 189.474 19.7865 190.172 20.5781C190.87 21.3646 191.219 22.4089 191.219 23.7109V23.9062C191.219 24.724 191.06 25.4609 190.742 26.1172C190.43 26.7682 189.987 27.2708 189.414 27.625C188.841 27.9792 188.188 28.1562 187.453 28.1562C186.333 28.1562 185.422 27.763 184.719 26.9766C184.021 26.1849 183.672 25.138 183.672 23.8359V23.6484ZM184.609 23.9062C184.609 24.9167 184.87 25.7474 185.391 26.3984C185.917 27.0443 186.604 27.3672 187.453 27.3672C188.297 27.3672 188.979 27.0443 189.5 26.3984C190.026 25.7474 190.289 24.8906 190.289 23.8281V23.6484C190.289 23.0026 190.169 22.4115 189.93 21.875C189.69 21.3385 189.354 20.9245 188.922 20.6328C188.49 20.3359 187.995 20.1875 187.438 20.1875C186.604 20.1875 185.924 20.5156 185.398 21.1719C184.872 21.8229 184.609 22.6771 184.609 23.7344V23.9062ZM194.047 19.5469L194.078 20.9922C194.396 20.4714 194.792 20.0755 195.266 19.8047C195.74 19.5286 196.263 19.3906 196.836 19.3906C197.742 19.3906 198.417 19.6458 198.859 20.1562C199.302 20.6667 199.526 21.4323 199.531 22.4531V28H198.602V22.4453C198.596 21.6901 198.435 21.1276 198.117 20.7578C197.805 20.388 197.302 20.2031 196.609 20.2031C196.031 20.2031 195.518 20.3854 195.07 20.75C194.628 21.1094 194.299 21.5964 194.086 22.2109V28H193.156V19.5469H194.047ZM207.289 28C207.195 27.7344 207.135 27.3411 207.109 26.8203C206.781 27.2474 206.362 27.5781 205.852 27.8125C205.346 28.0417 204.81 28.1562 204.242 28.1562C203.43 28.1562 202.771 27.9297 202.266 27.4766C201.766 27.0234 201.516 26.4505 201.516 25.7578C201.516 24.9349 201.857 24.2839 202.539 23.8047C203.227 23.3255 204.182 23.0859 205.406 23.0859H207.102V22.125C207.102 21.5208 206.914 21.0469 206.539 20.7031C206.169 20.3542 205.628 20.1797 204.914 20.1797C204.263 20.1797 203.724 20.3464 203.297 20.6797C202.87 21.013 202.656 21.4141 202.656 21.8828L201.719 21.875C201.719 21.2031 202.031 20.6224 202.656 20.1328C203.281 19.638 204.049 19.3906 204.961 19.3906C205.904 19.3906 206.646 19.6276 207.188 20.1016C207.734 20.5703 208.016 21.2266 208.031 22.0703V26.0703C208.031 26.888 208.117 27.5 208.289 27.9062V28H207.289ZM204.352 27.3281C204.977 27.3281 205.534 27.1771 206.023 26.875C206.518 26.5729 206.878 26.1693 207.102 25.6641V23.8047H205.43C204.497 23.8151 203.768 23.987 203.242 24.3203C202.716 24.6484 202.453 25.1016 202.453 25.6797C202.453 26.1536 202.628 26.5469 202.977 26.8594C203.331 27.1719 203.789 27.3281 204.352 27.3281ZM211.578 28H210.641V16H211.578V28ZM127.406 46.1875H133.023V47H126.438V35.625H127.406V46.1875ZM137.93 47.1562C137.211 47.1562 136.56 46.9792 135.977 46.625C135.398 46.2708 134.948 45.7786 134.625 45.1484C134.302 44.513 134.141 43.8021 134.141 43.0156V42.6797C134.141 41.8672 134.297 41.1354 134.609 40.4844C134.927 39.8333 135.367 39.3229 135.93 38.9531C136.492 38.5781 137.102 38.3906 137.758 38.3906C138.784 38.3906 139.596 38.7422 140.195 39.4453C140.799 40.1432 141.102 41.099 141.102 42.3125V42.8359H135.07V43.0156C135.07 43.974 135.344 44.7734 135.891 45.4141C136.443 46.0495 137.135 46.3672 137.969 46.3672C138.469 46.3672 138.909 46.276 139.289 46.0938C139.674 45.9115 140.023 45.6198 140.336 45.2188L140.922 45.6641C140.234 46.6589 139.237 47.1562 137.93 47.1562ZM137.758 39.1875C137.055 39.1875 136.461 39.4453 135.977 39.9609C135.497 40.4766 135.206 41.1693 135.102 42.0391H140.172V41.9375C140.146 41.125 139.914 40.4635 139.477 39.9531C139.039 39.4427 138.466 39.1875 137.758 39.1875ZM142.547 42.6953C142.547 41.3724 142.839 40.3255 143.422 39.5547C144.01 38.7786 144.807 38.3906 145.812 38.3906C146.964 38.3906 147.839 38.849 148.438 39.7656L148.484 38.5469H149.359V46.8281C149.359 47.9167 149.055 48.7786 148.445 49.4141C147.836 50.0495 147.01 50.3672 145.969 50.3672C145.38 50.3672 144.818 50.2344 144.281 49.9688C143.75 49.7083 143.331 49.3594 143.023 48.9219L143.547 48.3594C144.208 49.1719 144.995 49.5781 145.906 49.5781C146.688 49.5781 147.297 49.3464 147.734 48.8828C148.172 48.4245 148.398 47.7865 148.414 46.9688V45.9062C147.815 46.7396 146.943 47.1562 145.797 47.1562C144.818 47.1562 144.031 46.7656 143.438 45.9844C142.844 45.2031 142.547 44.1484 142.547 42.8203V42.6953ZM143.492 42.8594C143.492 43.9375 143.708 44.7891 144.141 45.4141C144.573 46.0339 145.182 46.3438 145.969 46.3438C147.12 46.3438 147.935 45.8281 148.414 44.7969V40.8672C148.195 40.3255 147.88 39.9141 147.469 39.6328C147.057 39.3464 146.562 39.2031 145.984 39.2031C145.198 39.2031 144.586 39.513 144.148 40.1328C143.711 40.7474 143.492 41.6562 143.492 42.8594ZM157.133 47C157.039 46.7344 156.979 46.3411 156.953 45.8203C156.625 46.2474 156.206 46.5781 155.695 46.8125C155.19 47.0417 154.654 47.1562 154.086 47.1562C153.273 47.1562 152.615 46.9297 152.109 46.4766C151.609 46.0234 151.359 45.4505 151.359 44.7578C151.359 43.9349 151.701 43.2839 152.383 42.8047C153.07 42.3255 154.026 42.0859 155.25 42.0859H156.945V41.125C156.945 40.5208 156.758 40.0469 156.383 39.7031C156.013 39.3542 155.471 39.1797 154.758 39.1797C154.107 39.1797 153.568 39.3464 153.141 39.6797C152.714 40.013 152.5 40.4141 152.5 40.8828L151.562 40.875C151.562 40.2031 151.875 39.6224 152.5 39.1328C153.125 38.638 153.893 38.3906 154.805 38.3906C155.747 38.3906 156.49 38.6276 157.031 39.1016C157.578 39.5703 157.859 40.2266 157.875 41.0703V45.0703C157.875 45.888 157.961 46.5 158.133 46.9062V47H157.133ZM154.195 46.3281C154.82 46.3281 155.378 46.1771 155.867 45.875C156.362 45.5729 156.721 45.1693 156.945 44.6641V42.8047H155.273C154.341 42.8151 153.612 42.987 153.086 43.3203C152.56 43.6484 152.297 44.1016 152.297 44.6797C152.297 45.1536 152.471 45.5469 152.82 45.8594C153.174 46.1719 153.633 46.3281 154.195 46.3281ZM161.422 47H160.484V35H161.422V47ZM176.133 43.4531C176.003 44.651 175.573 45.5677 174.844 46.2031C174.12 46.8385 173.154 47.1562 171.945 47.1562C171.102 47.1562 170.354 46.9453 169.703 46.5234C169.057 46.1016 168.557 45.5052 168.203 44.7344C167.849 43.9583 167.669 43.0729 167.664 42.0781V40.6016C167.664 39.5911 167.841 38.6953 168.195 37.9141C168.549 37.1328 169.057 36.5312 169.719 36.1094C170.385 35.6823 171.151 35.4688 172.016 35.4688C173.234 35.4688 174.195 35.7995 174.898 36.4609C175.607 37.1172 176.018 38.026 176.133 39.1875H175.164C174.924 37.2552 173.875 36.2891 172.016 36.2891C170.984 36.2891 170.161 36.6745 169.547 37.4453C168.938 38.2161 168.633 39.2812 168.633 40.6406V42.0312C168.633 43.3438 168.93 44.3906 169.523 45.1719C170.122 45.9531 170.93 46.3438 171.945 46.3438C172.951 46.3438 173.708 46.1042 174.219 45.625C174.729 45.1406 175.044 44.4167 175.164 43.4531H176.133ZM181.523 47.1562C180.805 47.1562 180.154 46.9792 179.57 46.625C178.992 46.2708 178.542 45.7786 178.219 45.1484C177.896 44.513 177.734 43.8021 177.734 43.0156V42.6797C177.734 41.8672 177.891 41.1354 178.203 40.4844C178.521 39.8333 178.961 39.3229 179.523 38.9531C180.086 38.5781 180.695 38.3906 181.352 38.3906C182.378 38.3906 183.19 38.7422 183.789 39.4453C184.393 40.1432 184.695 41.099 184.695 42.3125V42.8359H178.664V43.0156C178.664 43.974 178.938 44.7734 179.484 45.4141C180.036 46.0495 180.729 46.3672 181.562 46.3672C182.062 46.3672 182.503 46.276 182.883 46.0938C183.268 45.9115 183.617 45.6198 183.93 45.2188L184.516 45.6641C183.828 46.6589 182.831 47.1562 181.523 47.1562ZM181.352 39.1875C180.648 39.1875 180.055 39.4453 179.57 39.9609C179.091 40.4766 178.799 41.1693 178.695 42.0391H183.766V41.9375C183.74 41.125 183.508 40.4635 183.07 39.9531C182.633 39.4427 182.06 39.1875 181.352 39.1875ZM187.406 38.5469L187.438 39.9922C187.755 39.4714 188.151 39.0755 188.625 38.8047C189.099 38.5286 189.622 38.3906 190.195 38.3906C191.102 38.3906 191.776 38.6458 192.219 39.1562C192.661 39.6667 192.885 40.4323 192.891 41.4531V47H191.961V41.4453C191.956 40.6901 191.794 40.1276 191.477 39.7578C191.164 39.388 190.661 39.2031 189.969 39.2031C189.391 39.2031 188.878 39.3854 188.43 39.75C187.987 40.1094 187.659 40.5964 187.445 41.2109V47H186.516V38.5469H187.406ZM196.766 36.3828V38.5469H198.516V39.3125H196.766V44.9453C196.766 45.4141 196.849 45.763 197.016 45.9922C197.188 46.2214 197.471 46.3359 197.867 46.3359C198.023 46.3359 198.276 46.3099 198.625 46.2578L198.664 47.0234C198.419 47.112 198.086 47.1562 197.664 47.1562C197.023 47.1562 196.557 46.9714 196.266 46.6016C195.974 46.2266 195.828 45.6771 195.828 44.9531V39.3125H194.273V38.5469H195.828V36.3828H196.766ZM203.727 47.1562C203.008 47.1562 202.357 46.9792 201.773 46.625C201.195 46.2708 200.745 45.7786 200.422 45.1484C200.099 44.513 199.938 43.8021 199.938 43.0156V42.6797C199.938 41.8672 200.094 41.1354 200.406 40.4844C200.724 39.8333 201.164 39.3229 201.727 38.9531C202.289 38.5781 202.898 38.3906 203.555 38.3906C204.581 38.3906 205.393 38.7422 205.992 39.4453C206.596 40.1432 206.898 41.099 206.898 42.3125V42.8359H200.867V43.0156C200.867 43.974 201.141 44.7734 201.688 45.4141C202.24 46.0495 202.932 46.3672 203.766 46.3672C204.266 46.3672 204.706 46.276 205.086 46.0938C205.471 45.9115 205.82 45.6198 206.133 45.2188L206.719 45.6641C206.031 46.6589 205.034 47.1562 203.727 47.1562ZM203.555 39.1875C202.852 39.1875 202.258 39.4453 201.773 39.9609C201.294 40.4766 201.003 41.1693 200.898 42.0391H205.969V41.9375C205.943 41.125 205.711 40.4635 205.273 39.9531C204.836 39.4427 204.263 39.1875 203.555 39.1875ZM212.625 39.3438C212.427 39.3073 212.216 39.2891 211.992 39.2891C211.409 39.2891 210.914 39.4531 210.508 39.7812C210.107 40.1042 209.82 40.5755 209.648 41.1953V47H208.719V38.5469H209.633L209.648 39.8906C210.143 38.8906 210.938 38.3906 212.031 38.3906C212.292 38.3906 212.497 38.4245 212.648 38.4922L212.625 39.3438Z" fill="#3B1D8F"/>
</svg>
