<svg width="127" height="37" viewBox="0 0 127 37" fill="none" xmlns="http://www.w3.org/2000/svg">
<path d="M18.6096 34.0635H28.3764V37H15.64V0H18.6096V34.0635Z" fill="#3B1D8F"/>
<path d="M2.96961 0H0V37H2.96961V0Z" fill="#3B1D8F"/>
<path d="M33.6557 18.5326C33.6557 27.0811 40.7168 34.0635 49.3617 34.0635V37C39.001 37 30.6201 28.7125 30.6201 18.5326C30.6861 8.28748 39.067 0 49.4277 0V2.93651C40.7168 2.93651 33.6557 9.91887 33.6557 18.5326Z" fill="#3B1D8F"/>
<path d="M51.5392 18.4671C51.5392 19.6417 50.6154 20.5553 49.4275 20.5553C48.2397 20.5553 47.3158 19.6417 47.3158 18.4671C47.3158 17.2925 48.2397 16.3789 49.4275 16.3789C50.5494 16.3789 51.5392 17.3577 51.5392 18.4671Z" fill="#3B1D8F"/>
<path d="M76.0861 16.6348H75.5131V9.85249H76.0861V16.6348ZM78.3313 11.5946L78.35 12.4564C78.5394 12.1459 78.7754 11.9098 79.058 11.7484C79.3406 11.5838 79.6527 11.5015 79.9943 11.5015C80.5346 11.5015 80.9368 11.6536 81.2008 11.958C81.4647 12.2623 81.5983 12.7188 81.6014 13.3275V16.6348H81.047V13.3228C81.0439 12.8725 80.9477 12.5371 80.7582 12.3167C80.5719 12.0962 80.2722 11.9859 79.8592 11.9859C79.5145 11.9859 79.2086 12.0946 78.9415 12.312C78.6776 12.5263 78.4819 12.8166 78.3546 13.1831V16.6348H77.8003V11.5946H78.3313ZM83.9118 10.3043V11.5946H84.9552V12.0511H83.9118V15.4097C83.9118 15.6892 83.9615 15.8972 84.0609 16.0339C84.1633 16.1705 84.3326 16.2388 84.5686 16.2388C84.6618 16.2388 84.8124 16.2233 85.0204 16.1922L85.0437 16.6487C84.8978 16.7015 84.699 16.7279 84.4475 16.7279C84.0655 16.7279 83.7876 16.6177 83.6137 16.3972C83.4398 16.1736 83.3528 15.846 83.3528 15.4143V12.0511H82.4259V11.5946H83.3528V10.3043H83.9118ZM88.0622 16.7279C87.6337 16.7279 87.2455 16.6223 86.8977 16.4112C86.553 16.2 86.2844 15.9065 86.0918 15.5308C85.8993 15.1519 85.803 14.728 85.803 14.2591V14.0588C85.803 13.5744 85.8962 13.138 86.0825 12.7499C86.2719 12.3617 86.5343 12.0573 86.8697 11.8369C87.2051 11.6133 87.5685 11.5015 87.9597 11.5015C88.5715 11.5015 89.056 11.7111 89.4131 12.1303C89.7733 12.5465 89.9534 13.1163 89.9534 13.8399V14.152H86.3573V14.2591C86.3573 14.8305 86.5204 15.3072 86.8464 15.6892C87.1756 16.068 87.5886 16.2575 88.0855 16.2575C88.3836 16.2575 88.646 16.2031 88.8727 16.0944C89.1025 15.9857 89.3106 15.8118 89.4969 15.5727L89.8463 15.8382C89.4364 16.4314 88.8417 16.7279 88.0622 16.7279ZM87.9597 11.9766C87.5405 11.9766 87.1865 12.1303 86.8977 12.4378C86.612 12.7452 86.4381 13.1582 86.376 13.6768H89.3991V13.6163C89.3836 13.1318 89.2454 12.7374 88.9845 12.4331C88.7237 12.1288 88.3821 11.9766 87.9597 11.9766ZM93.3679 12.0698C93.2499 12.048 93.1241 12.0372 92.9906 12.0372C92.6427 12.0372 92.3477 12.135 92.1055 12.3306C91.8664 12.5232 91.6956 12.8042 91.5931 13.1738V16.6348H91.0388V11.5946H91.5838L91.5931 12.3958C91.8881 11.7996 92.3617 11.5015 93.0138 11.5015C93.1691 11.5015 93.2918 11.5217 93.3818 11.562L93.3679 12.0698ZM94.7839 11.5946L94.8026 12.4564C94.992 12.1459 95.228 11.9098 95.5106 11.7484C95.7932 11.5838 96.1053 11.5015 96.4469 11.5015C96.9873 11.5015 97.3894 11.6536 97.6534 11.958C97.9173 12.2623 98.0509 12.7188 98.054 13.3275V16.6348H97.4996V13.3228C97.4965 12.8725 97.4003 12.5371 97.2108 12.3167C97.0245 12.0962 96.7248 11.9859 96.3118 11.9859C95.9671 11.9859 95.6612 12.0946 95.3942 12.312C95.1302 12.5263 94.9346 12.8166 94.8072 13.1831V16.6348H94.2529V11.5946H94.7839ZM102.68 16.6348C102.624 16.4764 102.588 16.2419 102.572 15.9314C102.377 16.186 102.127 16.3832 101.822 16.523C101.521 16.6596 101.201 16.7279 100.863 16.7279C100.378 16.7279 99.9856 16.5928 99.6843 16.3227C99.3862 16.0525 99.2371 15.7109 99.2371 15.2979C99.2371 14.8072 99.4405 14.419 99.8474 14.1333C100.257 13.8476 100.827 13.7048 101.557 13.7048H102.568V13.1318C102.568 12.7716 102.456 12.489 102.232 12.284C102.012 12.076 101.689 11.9719 101.263 11.9719C100.875 11.9719 100.554 12.0713 100.299 12.2701C100.045 12.4688 99.9172 12.7079 99.9172 12.9874L99.3583 12.9828C99.3583 12.5822 99.5446 12.2359 99.9172 11.944C100.29 11.649 100.748 11.5015 101.291 11.5015C101.853 11.5015 102.296 11.6428 102.619 11.9254C102.945 12.2049 103.113 12.5961 103.122 13.0992V15.4842C103.122 15.9718 103.173 16.3366 103.276 16.5789V16.6348H102.68ZM100.928 16.2342C101.301 16.2342 101.633 16.1441 101.925 15.964C102.22 15.7839 102.434 15.5432 102.568 15.242V14.1333H101.571C101.015 14.1395 100.58 14.242 100.267 14.4408C99.9529 14.6364 99.7961 14.9066 99.7961 15.2513C99.7961 15.5339 99.9002 15.7683 100.108 15.9547C100.319 16.141 100.593 16.2342 100.928 16.2342ZM105.479 10.3043V11.5946H106.522V12.0511H105.479V15.4097C105.479 15.6892 105.529 15.8972 105.628 16.0339C105.731 16.1705 105.9 16.2388 106.136 16.2388C106.229 16.2388 106.38 16.2233 106.588 16.1922L106.611 16.6487C106.465 16.7015 106.266 16.7279 106.015 16.7279C105.633 16.7279 105.355 16.6177 105.181 16.3972C105.007 16.1736 104.92 15.846 104.92 15.4143V12.0511H103.993V11.5946H104.92V10.3043H105.479ZM108.302 16.6348H107.743V11.5946H108.302V16.6348ZM107.645 10.1366C107.645 10.0311 107.679 9.94255 107.748 9.87112C107.816 9.79659 107.909 9.75933 108.027 9.75933C108.145 9.75933 108.238 9.79659 108.307 9.87112C108.378 9.94255 108.414 10.0311 108.414 10.1366C108.414 10.2422 108.378 10.3307 108.307 10.4022C108.238 10.4736 108.145 10.5093 108.027 10.5093C107.909 10.5093 107.816 10.4736 107.748 10.4022C107.679 10.3307 107.645 10.2422 107.645 10.1366ZM109.513 14.0402C109.513 13.5557 109.606 13.1194 109.793 12.7312C109.982 12.343 110.247 12.0418 110.589 11.8275C110.934 11.6102 111.324 11.5015 111.758 11.5015C112.429 11.5015 112.972 11.7375 113.389 12.2095C113.805 12.6784 114.013 13.3011 114.013 14.0774V14.1939C114.013 14.6814 113.918 15.1209 113.729 15.5121C113.542 15.9003 113.278 16.2 112.937 16.4112C112.595 16.6223 112.205 16.7279 111.768 16.7279C111.1 16.7279 110.556 16.4935 110.137 16.0245C109.721 15.5525 109.513 14.9283 109.513 14.152V14.0402ZM110.072 14.1939C110.072 14.7963 110.227 15.2917 110.538 15.6798C110.851 16.0649 111.261 16.2575 111.768 16.2575C112.271 16.2575 112.677 16.0649 112.988 15.6798C113.302 15.2917 113.458 14.7808 113.458 14.1473V14.0402C113.458 13.6551 113.387 13.3026 113.244 12.9828C113.101 12.6629 112.901 12.416 112.643 12.2421C112.386 12.0651 112.091 11.9766 111.758 11.9766C111.261 11.9766 110.856 12.1723 110.542 12.5635C110.229 12.9517 110.072 13.461 110.072 14.0914V14.1939ZM115.699 11.5946L115.718 12.4564C115.907 12.1459 116.143 11.9098 116.426 11.7484C116.708 11.5838 117.02 11.5015 117.362 11.5015C117.902 11.5015 118.305 11.6536 118.568 11.958C118.832 12.2623 118.966 12.7188 118.969 13.3275V16.6348H118.415V13.3228C118.412 12.8725 118.315 12.5371 118.126 12.3167C117.94 12.0962 117.64 11.9859 117.227 11.9859C116.882 11.9859 116.576 12.0946 116.309 12.312C116.045 12.5263 115.85 12.8166 115.722 13.1831V16.6348H115.168V11.5946H115.699ZM123.595 16.6348C123.539 16.4764 123.503 16.2419 123.488 15.9314C123.292 16.186 123.042 16.3832 122.738 16.523C122.436 16.6596 122.116 16.7279 121.778 16.7279C121.294 16.7279 120.901 16.5928 120.599 16.3227C120.301 16.0525 120.152 15.7109 120.152 15.2979C120.152 14.8072 120.356 14.419 120.762 14.1333C121.172 13.8476 121.742 13.7048 122.472 13.7048H123.483V13.1318C123.483 12.7716 123.371 12.489 123.147 12.284C122.927 12.076 122.604 11.9719 122.179 11.9719C121.79 11.9719 121.469 12.0713 121.214 12.2701C120.96 12.4688 120.832 12.7079 120.832 12.9874L120.273 12.9828C120.273 12.5822 120.46 12.2359 120.832 11.944C121.205 11.649 121.663 11.5015 122.207 11.5015C122.769 11.5015 123.211 11.6428 123.534 11.9254C123.86 12.2049 124.028 12.5961 124.037 13.0992V15.4842C124.037 15.9718 124.088 16.3366 124.191 16.5789V16.6348H123.595ZM121.843 16.2342C122.216 16.2342 122.548 16.1441 122.84 15.964C123.135 15.7839 123.349 15.5432 123.483 15.242V14.1333H122.486C121.93 14.1395 121.495 14.242 121.182 14.4408C120.868 14.6364 120.711 14.9066 120.711 15.2513C120.711 15.5339 120.815 15.7683 121.023 15.9547C121.235 16.141 121.508 16.2342 121.843 16.2342ZM126.152 16.6348H125.593V9.47984H126.152V16.6348ZM75.965 27.1503H79.3142V27.6348H75.3874V20.8525H75.965V27.1503ZM82.2395 27.7279C81.811 27.7279 81.4228 27.6223 81.075 27.4112C80.7303 27.2 80.4617 26.9065 80.2691 26.5308C80.0766 26.1519 79.9803 25.728 79.9803 25.2591V25.0588C79.9803 24.5744 80.0735 24.138 80.2598 23.7499C80.4492 23.3617 80.7116 23.0573 81.047 22.8369C81.3824 22.6133 81.7458 22.5015 82.137 22.5015C82.7488 22.5015 83.2333 22.7111 83.5904 23.1303C83.9506 23.5465 84.1307 24.1163 84.1307 24.8399V25.152H80.5346V25.2591C80.5346 25.8305 80.6977 26.3072 81.0237 26.6892C81.3529 27.068 81.7659 27.2575 82.2628 27.2575C82.5609 27.2575 82.8233 27.2031 83.05 27.0944C83.2798 26.9857 83.4879 26.8118 83.6742 26.5727L84.0236 26.8382C83.6137 27.4314 83.019 27.7279 82.2395 27.7279ZM82.137 22.9766C81.7178 22.9766 81.3638 23.1303 81.075 23.4378C80.7893 23.7452 80.6154 24.1582 80.5533 24.6768H83.5764V24.6163C83.5609 24.1318 83.4227 23.7374 83.1618 23.4331C82.901 23.1288 82.5594 22.9766 82.137 22.9766ZM84.9925 25.0681C84.9925 24.2793 85.1664 23.6551 85.5142 23.1955C85.8651 22.7328 86.3403 22.5015 86.9396 22.5015C87.6259 22.5015 88.1476 22.7748 88.5047 23.3213L88.5327 22.5946H89.0544V27.5323C89.0544 28.1813 88.8727 28.6953 88.5094 29.0741C88.1461 29.453 87.6539 29.6424 87.0328 29.6424C86.6819 29.6424 86.3465 29.5632 86.0266 29.4049C85.7099 29.2496 85.4599 29.0415 85.2766 28.7807L85.5887 28.4453C85.9831 28.9297 86.4521 29.172 86.9955 29.172C87.4613 29.172 87.8247 29.0338 88.0855 28.7574C88.3464 28.4841 88.4815 28.1037 88.4908 27.6161V26.9826C88.1336 27.4795 87.6135 27.7279 86.9303 27.7279C86.3465 27.7279 85.8775 27.495 85.5235 27.0292C85.1695 26.5634 84.9925 25.9345 84.9925 25.1427V25.0681ZM85.5561 25.1659C85.5561 25.8088 85.685 26.3165 85.9428 26.6892C86.2005 27.0587 86.5638 27.2435 87.0328 27.2435C87.7191 27.2435 88.2051 26.936 88.4908 26.3212V23.9781C88.3603 23.6551 88.1725 23.4098 87.9271 23.2421C87.6818 23.0713 87.3868 22.9859 87.0421 22.9859C86.5732 22.9859 86.2083 23.1707 85.9474 23.5402C85.6866 23.9067 85.5561 24.4486 85.5561 25.1659ZM93.6893 27.6348C93.6334 27.4764 93.5977 27.2419 93.5821 26.9314C93.3865 27.186 93.1365 27.3832 92.8322 27.523C92.5309 27.6596 92.2111 27.7279 91.8726 27.7279C91.3881 27.7279 90.9953 27.5928 90.6941 27.3227C90.396 27.0525 90.2469 26.7109 90.2469 26.2979C90.2469 25.8072 90.4503 25.419 90.8571 25.1333C91.267 24.8476 91.8369 24.7048 92.5667 24.7048H93.5775V24.1318C93.5775 23.7716 93.4657 23.489 93.2421 23.284C93.0216 23.076 92.6986 22.9719 92.2732 22.9719C91.885 22.9719 91.5636 23.0713 91.309 23.2701C91.0543 23.4688 90.927 23.7079 90.927 23.9874L90.368 23.9828C90.368 23.5822 90.5543 23.2359 90.927 22.944C91.2996 22.649 91.7577 22.5015 92.3011 22.5015C92.8632 22.5015 93.3058 22.6428 93.6287 22.9254C93.9548 23.2049 94.1225 23.5961 94.1318 24.0992V26.4842C94.1318 26.9718 94.183 27.3366 94.2855 27.5789V27.6348H93.6893ZM91.9378 27.2342C92.3105 27.2342 92.6427 27.1441 92.9347 26.964C93.2297 26.7839 93.4439 26.5432 93.5775 26.242V25.1333H92.5806C92.0248 25.1395 91.59 25.242 91.2763 25.4408C90.9627 25.6364 90.8059 25.9066 90.8059 26.2513C90.8059 26.5339 90.9099 26.7683 91.118 26.9547C91.3291 27.141 91.6024 27.2342 91.9378 27.2342ZM96.2466 27.6348H95.6876V20.4798H96.2466V27.6348ZM105.018 25.52C104.94 26.2342 104.684 26.7808 104.249 27.1596C103.818 27.5385 103.242 27.7279 102.521 27.7279C102.018 27.7279 101.572 27.6022 101.184 27.3506C100.799 27.0991 100.501 26.7435 100.29 26.2839C100.079 25.8212 99.9716 25.2933 99.9685 24.7001V23.8197C99.9685 23.2173 100.074 22.6831 100.285 22.2173C100.496 21.7515 100.799 21.3928 101.194 21.1413C101.591 20.8866 102.048 20.7593 102.563 20.7593C103.29 20.7593 103.863 20.9565 104.282 21.3509C104.704 21.7422 104.95 22.2841 105.018 22.9766H104.44C104.297 21.8245 103.672 21.2484 102.563 21.2484C101.948 21.2484 101.458 21.4782 101.091 21.9378C100.728 22.3974 100.546 23.0325 100.546 23.843V24.6722C100.546 25.4547 100.723 26.0789 101.077 26.5448C101.434 27.0106 101.916 27.2435 102.521 27.2435C103.12 27.2435 103.572 27.1006 103.877 26.8149C104.181 26.5261 104.369 26.0945 104.44 25.52H105.018ZM108.232 27.7279C107.803 27.7279 107.415 27.6223 107.068 27.4112C106.723 27.2 106.454 26.9065 106.262 26.5308C106.069 26.1519 105.973 25.728 105.973 25.2591V25.0588C105.973 24.5744 106.066 24.138 106.252 23.7499C106.442 23.3617 106.704 23.0573 107.04 22.8369C107.375 22.6133 107.738 22.5015 108.13 22.5015C108.741 22.5015 109.226 22.7111 109.583 23.1303C109.943 23.5465 110.123 24.1163 110.123 24.8399V25.152H106.527V25.2591C106.527 25.8305 106.69 26.3072 107.016 26.6892C107.345 27.068 107.758 27.2575 108.255 27.2575C108.553 27.2575 108.816 27.2031 109.043 27.0944C109.272 26.9857 109.48 26.8118 109.667 26.5727L110.016 26.8382C109.606 27.4314 109.012 27.7279 108.232 27.7279ZM108.13 22.9766C107.71 22.9766 107.356 23.1303 107.068 23.4378C106.782 23.7452 106.608 24.1582 106.546 24.6768H109.569V24.6163C109.553 24.1318 109.415 23.7374 109.154 23.4331C108.894 23.1288 108.552 22.9766 108.13 22.9766ZM111.74 22.5946L111.758 23.4564C111.948 23.1459 112.184 22.9098 112.466 22.7484C112.749 22.5838 113.061 22.5015 113.403 22.5015C113.943 22.5015 114.345 22.6536 114.609 22.958C114.873 23.2623 115.007 23.7188 115.01 24.3275V27.6348H114.455V24.3228C114.452 23.8725 114.356 23.5371 114.167 23.3167C113.98 23.0962 113.681 22.9859 113.268 22.9859C112.923 22.9859 112.617 23.0946 112.35 23.312C112.086 23.5263 111.89 23.8166 111.763 24.1831V27.6348H111.209V22.5946H111.74ZM117.32 21.3043V22.5946H118.364V23.0511H117.32V26.4097C117.32 26.6892 117.37 26.8972 117.469 27.0339C117.572 27.1705 117.741 27.2388 117.977 27.2388C118.07 27.2388 118.221 27.2233 118.429 27.1922L118.452 27.6487C118.306 27.7015 118.107 27.7279 117.856 27.7279C117.474 27.7279 117.196 27.6177 117.022 27.3972C116.848 27.1736 116.761 26.846 116.761 26.4143V23.0511H115.834V22.5946H116.761V21.3043H117.32ZM121.471 27.7279C121.042 27.7279 120.654 27.6223 120.306 27.4112C119.961 27.2 119.693 26.9065 119.5 26.5308C119.308 26.1519 119.211 25.728 119.211 25.2591V25.0588C119.211 24.5744 119.304 24.138 119.491 23.7499C119.68 23.3617 119.943 23.0573 120.278 22.8369C120.613 22.6133 120.977 22.5015 121.368 22.5015C121.98 22.5015 122.464 22.7111 122.821 23.1303C123.182 23.5465 123.362 24.1163 123.362 24.8399V25.152H119.766V25.2591C119.766 25.8305 119.929 26.3072 120.255 26.6892C120.584 27.068 120.997 27.2575 121.494 27.2575C121.792 27.2575 122.054 27.2031 122.281 27.0944C122.511 26.9857 122.719 26.8118 122.905 26.5727L123.255 26.8382C122.845 27.4314 122.25 27.7279 121.471 27.7279ZM121.368 22.9766C120.949 22.9766 120.595 23.1303 120.306 23.4378C120.02 23.7452 119.846 24.1582 119.784 24.6768H122.807V24.6163C122.792 24.1318 122.654 23.7374 122.393 23.4331C122.132 23.1288 121.79 22.9766 121.368 22.9766ZM126.776 23.0698C126.658 23.048 126.532 23.0372 126.399 23.0372C126.051 23.0372 125.756 23.135 125.514 23.3306C125.275 23.5232 125.104 23.8042 125.001 24.1738V27.6348H124.447V22.5946H124.992L125.001 23.3958C125.296 22.7996 125.77 22.5015 126.422 22.5015C126.577 22.5015 126.7 22.5217 126.79 22.562L126.776 23.0698Z" fill="#3B1D8F"/>
</svg>
