<svg width="55" height="55" viewBox="0 0 55 55" fill="none" xmlns="http://www.w3.org/2000/svg">
<g clip-path="url(#clip0_55:1749)">
<path d="M50.4652 29.6427C50.4652 43.5093 39.2241 54.7503 25.3576 54.7503C11.491 54.7503 0.25 43.5093 0.25 29.6427C0.25 15.7762 11.491 4.53516 25.3576 4.53516C39.2241 4.53516 50.4652 15.7762 50.4652 29.6427Z" stroke="black" stroke-width="0.5"/>
<path d="M43.4949 29.6422C43.4949 39.6591 35.3746 47.7795 25.3576 47.7795C15.3407 47.7795 7.22034 39.6591 7.22034 29.6422C7.22034 19.6252 15.3407 11.5049 25.3576 11.5049C35.3746 11.5049 43.4949 19.6252 43.4949 29.6422Z" stroke="black" stroke-width="0.5"/>
<path d="M36.5245 29.6425C36.5245 35.8098 31.5249 40.8094 25.3576 40.8094C19.1903 40.8094 14.1907 35.8098 14.1907 29.6425C14.1907 23.4752 19.1903 18.4756 25.3576 18.4756C31.5249 18.4756 36.5245 23.4752 36.5245 29.6425Z" stroke="black" stroke-width="0.5"/>
<path d="M25.3575 34.0886C27.8133 34.0886 29.8041 32.0977 29.8041 29.6419C29.8041 27.1861 27.8133 25.1953 25.3575 25.1953C22.9017 25.1953 20.9109 27.1861 20.9109 29.6419C20.9109 32.0977 22.9017 34.0886 25.3575 34.0886Z" fill="url(#paint0_linear_55:1749)"/>
<path d="M48.8654 0.115666L43.3025 5.67851C43.0634 5.91763 42.9386 6.24784 42.9599 6.58526L43.282 11.718L49.836 5.16406L49.535 0.368751C49.5138 0.0312319 49.1045 -0.123456 48.8654 0.115666Z" fill="url(#paint1_linear_55:1749)"/>
<path d="M54.8846 6.13462L49.3217 11.6975C49.0826 11.9366 48.7524 12.0614 48.415 12.0401L43.2822 11.718L49.8362 5.16406L54.6315 5.46506C54.9689 5.48622 55.1236 5.89561 54.8846 6.13462Z" fill="url(#paint2_linear_55:1749)"/>
<path d="M25.3576 30.222C25.2089 30.222 25.0609 30.1655 24.9476 30.0522C24.7212 29.8259 24.7212 29.4588 24.9476 29.2324L52.6578 1.52233C52.8843 1.29594 53.2513 1.29594 53.4778 1.52233C53.7041 1.74869 53.7041 2.11578 53.4777 2.34212L25.7675 30.0522C25.6543 30.1654 25.5063 30.222 25.3576 30.222Z" stroke="black" stroke-width="0.5"/>
</g>
<defs>
<linearGradient id="paint0_linear_55:1749" x1="25.3575" y1="25.1953" x2="25.3575" y2="34.0886" gradientUnits="userSpaceOnUse">
<stop stop-color="#4614E8"/>
<stop offset="1" stop-color="#BCA7FF"/>
</linearGradient>
<linearGradient id="paint1_linear_55:1749" x1="46.3967" y1="0" x2="46.3967" y2="11.718" gradientUnits="userSpaceOnUse">
<stop stop-color="#4614E8"/>
<stop offset="1" stop-color="#BCA7FF"/>
</linearGradient>
<linearGradient id="paint2_linear_55:1749" x1="49.1412" y1="5.16406" x2="49.1412" y2="12.0425" gradientUnits="userSpaceOnUse">
<stop stop-color="#4614E8"/>
<stop offset="1" stop-color="#BCA7FF"/>
</linearGradient>
<clipPath id="clip0_55:1749">
<rect width="55" height="55" fill="white"/>
</clipPath>
</defs>
</svg>
