<svg width="160" height="112" viewBox="0 0 160 112" fill="none" xmlns="http://www.w3.org/2000/svg">
<g clip-path="url(#clip0_55:1706)">
<path d="M72.5506 45.3943H0V0H72.5506V45.3943Z" fill="white"/>
<path d="M72.5506 45.3943H0V0H72.5506V45.3943ZM0.331282 45.0629H72.2193V0.331346H0.331282V45.0629Z" fill="#3F3D56"/>
<path d="M63.6888 108.267H22.2787V62.873H63.6888V108.267Z" fill="white"/>
<path d="M63.6888 108.267H22.2787V62.873H63.6888V108.267ZM22.61 107.936H63.3576V63.2044H22.61V107.936Z" fill="#3F3D56"/>
<path d="M58.0572 103.979H49.4438V104.329H58.0572V103.979Z" fill="#3F3D56"/>
<path d="M58.0572 105.027H49.4438V105.377H58.0572V105.027Z" fill="#3F3D56"/>
<path d="M58.0572 106.075H49.4438V106.424H58.0572V106.075Z" fill="#3F3D56"/>
<path d="M42.9836 70.9912V74.636C45.1458 74.636 47.2595 75.2773 49.0573 76.4788C50.8551 77.6803 52.2563 79.388 53.0838 81.386C53.9112 83.384 54.1277 85.5825 53.7059 87.7036C53.284 89.8246 52.2428 91.773 50.7139 93.3022L53.2907 95.8794C55.3292 93.8405 56.7175 91.2427 57.2799 88.4146C57.8424 85.5865 57.5537 82.6552 56.4505 79.9912C55.3472 77.3272 53.4789 75.0502 51.0819 73.4482C48.6848 71.8463 45.8666 70.9912 42.9836 70.9912Z" fill="#E6E6E6"/>
<path d="M53.2908 95.879L50.7141 93.3018C48.845 95.1716 46.3617 96.3005 43.7242 96.4793C41.0868 96.6582 38.4739 95.8749 36.3696 94.2745L34.1639 97.1772C36.9701 99.3105 40.4541 100.354 43.9708 100.116C47.4874 99.877 50.7985 98.3719 53.2908 95.879Z" fill="#575A89"/>
<path d="M32.0513 85.5704C32.0513 84.1345 32.3341 82.7126 32.8835 81.386C33.4329 80.0594 34.2382 78.854 35.2533 77.8386C36.2685 76.8233 37.4736 76.0178 38.8 75.4683C40.1264 74.9188 41.548 74.636 42.9836 74.636V70.9912C39.9322 70.9912 36.9577 71.9489 34.4795 73.7295C32.0012 75.5101 30.1441 78.0237 29.17 80.9159C28.1958 83.8082 28.1538 86.9333 29.0497 89.8508C29.9456 92.7683 31.7344 95.331 34.1638 97.1776L36.3694 94.2749C35.0265 93.2561 33.9377 91.94 33.1885 90.4298C32.4394 88.9195 32.0501 87.2563 32.0513 85.5704Z" fill="#6C63FF"/>
<path d="M32.0513 85.5704C32.0513 84.1345 32.3341 82.7126 32.8835 81.386C33.4329 80.0594 34.2382 78.854 35.2533 77.8386C36.2685 76.8233 37.4736 76.0178 38.8 75.4683C40.1264 74.9188 41.548 74.636 42.9836 74.636V70.9912C39.9322 70.9912 36.9577 71.9489 34.4795 73.7295C32.0012 75.5101 30.1441 78.0237 29.17 80.9159C28.1958 83.8082 28.1538 86.9333 29.0497 89.8508C29.9456 92.7683 31.7344 95.331 34.1638 97.1776L36.3694 94.2749C35.0265 93.2561 33.9377 91.94 33.1885 90.4298C32.4394 88.9195 32.0501 87.2563 32.0513 85.5704Z" fill="url(#paint0_linear_55:1706)"/>
<path d="M124.976 80.1024H83.5657V34.708H124.976V80.1024Z" fill="white"/>
<path d="M96.9827 62.459H89.5288V74.3874H96.9827V62.459Z" fill="#575A89"/>
<path d="M107.749 54.3408H100.295V74.3872H107.749V54.3408Z" fill="#E6E6E6"/>
<path d="M118.516 44.8975H111.062V74.3871H118.516V44.8975Z" fill="#6C63FF"/>
<path d="M118.516 44.8975H111.062V74.3871H118.516V44.8975Z" fill="url(#paint1_linear_55:1706)"/>
<path d="M121 74.7185H87.5411V40.0928H87.8723V74.387H121V74.7185Z" fill="#3F3D56"/>
<mask id="path-16-inside-1_55:1706" fill="white">
<path d="M159.81 112H124.258C124.208 112 124.159 111.98 124.124 111.945C124.088 111.909 124.068 111.861 124.068 111.81C124.068 111.76 124.088 111.711 124.124 111.676C124.159 111.64 124.208 111.62 124.258 111.62H159.81C159.86 111.62 159.909 111.64 159.944 111.676C159.98 111.711 160 111.76 160 111.81C160 111.861 159.98 111.909 159.944 111.945C159.909 111.98 159.86 112 159.81 112Z"/>
</mask>
<path d="M159.81 112H124.258C124.208 112 124.159 111.98 124.124 111.945C124.088 111.909 124.068 111.861 124.068 111.81C124.068 111.76 124.088 111.711 124.124 111.676C124.159 111.64 124.208 111.62 124.258 111.62H159.81C159.86 111.62 159.909 111.64 159.944 111.676C159.98 111.711 160 111.76 160 111.81C160 111.861 159.98 111.909 159.944 111.945C159.909 111.98 159.86 112 159.81 112Z" fill="white"/>
<path d="M159.81 111.5H124.258V112.5H159.81V111.5ZM124.258 111.5C124.34 111.5 124.419 111.533 124.477 111.591L123.77 112.298C123.899 112.428 124.075 112.5 124.258 112.5V111.5ZM124.477 111.591C124.535 111.649 124.568 111.728 124.568 111.81H123.568C123.568 111.993 123.641 112.169 123.77 112.298L124.477 111.591ZM124.568 111.81C124.568 111.892 124.535 111.971 124.477 112.029L123.77 111.322C123.641 111.452 123.568 111.627 123.568 111.81H124.568ZM124.477 112.029C124.419 112.087 124.34 112.12 124.258 112.12V111.12C124.075 111.12 123.899 111.193 123.77 111.322L124.477 112.029ZM124.258 112.12H159.81V111.12H124.258V112.12ZM159.81 112.12C159.728 112.12 159.649 112.087 159.591 112.029L160.298 111.322C160.168 111.193 159.993 111.12 159.81 111.12V112.12ZM159.591 112.029C159.533 111.971 159.5 111.892 159.5 111.81H160.5C160.5 111.627 160.427 111.452 160.298 111.322L159.591 112.029ZM159.5 111.81C159.5 111.728 159.533 111.649 159.591 111.591L160.298 112.298C160.427 112.169 160.5 111.993 160.5 111.81H159.5ZM159.591 111.591C159.649 111.533 159.728 111.5 159.81 111.5V112.5C159.993 112.5 160.168 112.428 160.298 112.298L159.591 111.591Z" fill="black" mask="url(#path-16-inside-1_55:1706)"/>
<path d="M62.4751 35.9011H10.0756C10.0321 35.9011 9.99041 35.8838 9.95965 35.853C9.9289 35.8223 9.91162 35.7806 9.91162 35.7371V10.6171C9.91162 10.5736 9.9289 10.5319 9.95965 10.5012C9.9904 10.4704 10.0321 10.4531 10.0756 10.4531C10.1191 10.4531 10.1608 10.4704 10.1916 10.5012C10.2223 10.5319 10.2396 10.5736 10.2396 10.6171V35.573H62.4751C62.4967 35.573 62.5181 35.5772 62.5381 35.5854C62.558 35.5936 62.5762 35.6056 62.5914 35.6209C62.6067 35.6361 62.6189 35.6542 62.6271 35.6742C62.6354 35.6941 62.6397 35.7155 62.6397 35.7371C62.6397 35.7586 62.6354 35.78 62.6271 35.8C62.6189 35.8199 62.6067 35.838 62.5914 35.8532C62.5762 35.8685 62.558 35.8805 62.5381 35.8888C62.5181 35.897 62.4967 35.9012 62.4751 35.9011Z" fill="#3F3D56"/>
<path d="M21.271 34.0956H16.5051C16.3761 34.0955 16.2523 34.0441 16.1611 33.9529C16.0698 33.8616 16.0185 33.7378 16.0183 33.6088V27.0376C16.0185 26.9085 16.0698 26.7848 16.1611 26.6935C16.2523 26.6023 16.3761 26.5509 16.5051 26.5508H21.271C21.4001 26.5509 21.5238 26.6023 21.6151 26.6935C21.7063 26.7848 21.7577 26.9086 21.7578 27.0376V33.6088C21.7577 33.7378 21.7063 33.8616 21.6151 33.9529C21.5238 34.0441 21.4001 34.0955 21.271 34.0956Z" fill="url(#paint2_linear_55:1706)"/>
<path d="M29.9623 34.0959H25.1964C25.0673 34.0957 24.9436 34.0444 24.8523 33.9531C24.7611 33.8619 24.7097 33.7381 24.7096 33.609V20.8052C24.7097 20.6761 24.7611 20.5524 24.8523 20.4611C24.9436 20.3698 25.0673 20.3185 25.1964 20.3184H29.9623C30.0914 20.3185 30.2151 20.3698 30.3064 20.4611C30.3976 20.5524 30.449 20.6761 30.4491 20.8052V33.609C30.449 33.7381 30.3976 33.8619 30.3064 33.9531C30.2151 34.0444 30.0914 34.0957 29.9623 34.0959Z" fill="url(#paint3_linear_55:1706)"/>
<path d="M38.6535 34.0956H33.8876C33.7585 34.0955 33.6348 34.0441 33.5435 33.9529C33.4523 33.8616 33.4009 33.7378 33.4008 33.6088V27.0376C33.4009 26.9086 33.4523 26.7848 33.5435 26.6935C33.6348 26.6023 33.7585 26.5509 33.8876 26.5508H38.6535C38.7825 26.5509 38.9063 26.6023 38.9975 26.6935C39.0888 26.7848 39.1401 26.9085 39.1403 27.0376V33.6088C39.1401 33.7378 39.0888 33.8616 38.9975 33.9529C38.9063 34.0441 38.7825 34.0955 38.6535 34.0956Z" fill="url(#paint4_linear_55:1706)"/>
<path d="M47.3449 34.0963H42.579C42.4528 34.099 42.3308 34.0516 42.2395 33.9645C42.1483 33.8774 42.0953 33.7576 42.0922 33.6315V18.3233C42.0953 18.1972 42.1483 18.0774 42.2395 17.9903C42.3308 17.9032 42.4528 17.8558 42.579 17.8585H47.3449C47.471 17.8558 47.5931 17.9032 47.6843 17.9903C47.7755 18.0774 47.8285 18.1972 47.8317 18.3233V33.6315C47.8285 33.7576 47.7755 33.8774 47.6843 33.9645C47.5931 34.0516 47.471 34.099 47.3449 34.0963Z" fill="url(#paint5_linear_55:1706)"/>
<path d="M56.0362 34.096H51.2702C51.1412 34.0958 51.0175 34.0445 50.9262 33.9532C50.8349 33.8619 50.7836 33.7382 50.7834 33.6091V13.9165C50.7836 13.7875 50.8349 13.6637 50.9262 13.5724C51.0175 13.4812 51.1412 13.4298 51.2702 13.4297H56.0362C56.1652 13.4298 56.289 13.4812 56.3802 13.5724C56.4715 13.6637 56.5228 13.7875 56.523 13.9165V33.6091C56.5228 33.7382 56.4715 33.8619 56.3802 33.9532C56.289 34.0445 56.1652 34.0958 56.0362 34.096Z" fill="url(#paint6_linear_55:1706)"/>
<path d="M18.888 24.5834C19.4314 24.5834 19.8719 24.1428 19.8719 23.5993C19.8719 23.0558 19.4314 22.6152 18.888 22.6152C18.3446 22.6152 17.9041 23.0558 17.9041 23.5993C17.9041 24.1428 18.3446 24.5834 18.888 24.5834Z" fill="#3F3D56"/>
<path d="M27.5794 18.187C28.1228 18.187 28.5633 17.7464 28.5633 17.2029C28.5633 16.6594 28.1228 16.2188 27.5794 16.2188C27.036 16.2188 26.5955 16.6594 26.5955 17.2029C26.5955 17.7464 27.036 18.187 27.5794 18.187Z" fill="#3F3D56"/>
<path d="M36.2707 24.5834C36.8141 24.5834 37.2546 24.1428 37.2546 23.5993C37.2546 23.0558 36.8141 22.6152 36.2707 22.6152C35.7273 22.6152 35.2867 23.0558 35.2867 23.5993C35.2867 24.1428 35.7273 24.5834 36.2707 24.5834Z" fill="#3F3D56"/>
<path d="M44.9618 15.0698C45.5052 15.0698 45.9458 14.6292 45.9458 14.0857C45.9458 13.5422 45.5052 13.1016 44.9618 13.1016C44.4184 13.1016 43.9779 13.5422 43.9779 14.0857C43.9779 14.6292 44.4184 15.0698 44.9618 15.0698Z" fill="#3F3D56"/>
<path d="M53.6531 11.4624C54.1965 11.4624 54.637 11.0218 54.637 10.4782C54.637 9.93474 54.1965 9.49414 53.6531 9.49414C53.1097 9.49414 52.6692 9.93474 52.6692 10.4782C52.6692 11.0218 53.1097 11.4624 53.6531 11.4624Z" fill="#3F3D56"/>
<path d="M36.2912 23.8199L27.5793 17.2933L18.9863 23.7307L18.7897 23.4681L27.5793 16.8833L36.2498 23.3789L44.866 13.9483L44.9006 13.9343L53.5918 10.4316L53.7144 10.7361L45.0577 14.2246L36.2912 23.8199Z" fill="#3F3D56"/>
<path d="M122.203 62.2851L122.183 62.2733C121.874 62.0824 121.643 61.7861 121.533 61.438C121.421 61.0831 121.442 60.6993 121.593 60.3593C121.744 60.0193 122.014 59.7469 122.352 59.5935C122.689 59.4401 123.071 59.4163 123.425 59.5266L123.466 59.5394L123.509 59.5377L129.02 59.3162L130.395 61.5672L124.627 61.3746L124.449 61.3686L124.385 61.5349C124.306 61.7411 124.183 61.9273 124.024 62.0804C123.866 62.2336 123.676 62.3499 123.468 62.4214C123.26 62.4929 123.039 62.5177 122.82 62.4941C122.602 62.4706 122.391 62.3992 122.203 62.2851Z" fill="white" stroke="black" stroke-width="0.5"/>
<path d="M157.018 75.8774L157.017 75.8786C156.775 76.1599 156.438 76.342 156.071 76.3906C155.703 76.4391 155.331 76.3509 155.024 76.1424C154.717 75.9339 154.497 75.6195 154.406 75.2587C154.314 74.8979 154.358 74.516 154.528 74.1853L154.548 74.1471L154.554 74.1046L155.302 68.6206L157.749 67.6576L156.55 73.3226L156.513 73.4962L156.665 73.5881C156.853 73.7022 157.014 73.8564 157.137 74.0398C157.259 74.2232 157.34 74.4314 157.374 74.6497C157.408 74.8681 157.393 75.0912 157.332 75.3033C157.271 75.5154 157.163 75.7114 157.018 75.8774Z" fill="white" stroke="black" stroke-width="0.5"/>
<path d="M142.36 99.9054L142.36 107.684L140.692 107.684L139.736 99.9053L142.36 99.9054Z" fill="white" stroke="black" stroke-width="0.5"/>
<path d="M138.943 107.483L142.906 107.484L142.905 109.765L136.514 109.765C136.532 109.499 136.592 109.238 136.694 108.992C136.816 108.695 136.996 108.426 137.222 108.199C137.448 107.972 137.716 107.792 138.012 107.669C138.307 107.547 138.623 107.483 138.943 107.483H138.943H138.943H138.943Z" fill="white" stroke="black" stroke-width="0.5"/>
<path d="M152.828 99.9054L152.828 107.684L151.16 107.684L150.204 99.9053L152.828 99.9054Z" fill="white" stroke="black" stroke-width="0.5"/>
<path d="M149.411 107.483L153.374 107.484L153.373 109.765L146.982 109.765C147 109.499 147.06 109.238 147.162 108.992C147.284 108.695 147.464 108.426 147.69 108.199C147.916 107.972 148.184 107.792 148.48 107.669C148.775 107.547 149.091 107.483 149.411 107.483H149.411H149.411H149.411Z" fill="white" stroke="black" stroke-width="0.5"/>
<path d="M153.176 75.195C149.575 73.0771 145.324 72.9232 140.149 74.7792L139.301 102.686C139.301 102.686 139.301 102.686 139.301 102.686C139.298 102.828 139.35 102.966 139.446 103.069C139.542 103.173 139.675 103.234 139.815 103.24C139.815 103.24 139.815 103.24 139.816 103.24L142.841 103.362C142.841 103.362 142.842 103.362 142.842 103.362C142.849 103.362 142.857 103.362 142.864 103.362V103.612M153.176 75.195L145.583 84.7999L143.395 102.888C143.395 102.888 143.395 102.888 143.395 102.889C143.379 103.019 143.316 103.139 143.218 103.226C143.12 103.313 142.993 103.362 142.863 103.362L142.864 103.612M153.176 75.195L153.684 102.402L153.684 102.402C153.686 102.473 153.673 102.545 153.646 102.611C153.62 102.678 153.581 102.738 153.531 102.789L153.71 102.964L153.531 102.789C153.481 102.84 153.422 102.88 153.356 102.908L153.453 103.138L153.356 102.908C153.291 102.936 153.22 102.95 153.149 102.95H150.596C150.473 102.95 150.353 102.906 150.257 102.827C150.161 102.748 150.095 102.638 150.071 102.516C150.071 102.516 150.071 102.516 150.071 102.515L146.593 84.7626C146.57 84.643 146.504 84.5355 146.409 84.4596C146.313 84.3837 146.194 84.3444 146.072 84.3489C145.95 84.3534 145.834 84.4015 145.744 84.4842L145.914 84.6679L145.744 84.4842C145.654 84.5669 145.597 84.6788 145.583 84.7997L153.176 75.195ZM142.864 103.612C143.055 103.611 143.24 103.541 143.384 103.413L142.833 103.612C142.843 103.612 142.854 103.612 142.864 103.612ZM153.423 75.0512L153.934 102.397L139.96 74.5816C145.267 72.6554 149.657 72.801 153.382 75.0263L153.423 75.0512Z" fill="white" stroke="black" stroke-width="0.5"/>
<path d="M149.814 45.6787C149.814 47.9162 148.006 49.7286 145.778 49.7286C143.551 49.7286 141.743 47.9162 141.743 45.6787C141.743 43.4413 143.551 41.6289 145.778 41.6289C148.006 41.6289 149.814 43.4413 149.814 45.6787Z" fill="white" stroke="black" stroke-width="0.5"/>
<path d="M125.872 61.4084L125.872 61.4086C125.884 61.4486 125.901 61.4869 125.923 61.5228L125.923 61.5229C125.961 61.5879 126.013 61.6438 126.075 61.6873C126.136 61.7307 126.206 61.7606 126.279 61.7752L125.872 61.4084ZM125.872 61.4084C125.839 61.3037 125.839 61.1915 125.871 61.0869C125.871 61.0868 125.872 61.0868 125.872 61.0867L126.315 59.66C126.315 59.6599 126.315 59.6599 126.315 59.6598C126.349 59.5542 126.413 59.4614 126.5 59.3941C126.588 59.3267 126.693 59.2878 126.803 59.2827C126.803 59.2827 126.803 59.2827 126.803 59.2827L132.425 59.0333L132.479 59.0309L132.528 59.0059L141.63 54.324C141.909 54.2372 142.203 54.2051 142.495 54.2297C142.793 54.2549 143.084 54.3388 143.35 54.4768C143.616 54.6147 143.852 54.804 144.046 55.0338C144.239 55.2636 144.385 55.5294 144.476 55.8161C144.567 56.1028 144.6 56.4046 144.575 56.7043C144.549 57.004 144.465 57.2958 144.327 57.5628C144.189 57.8298 144 58.0668 143.771 58.2604C143.542 58.4539 143.277 58.6002 142.991 58.6909L142.965 58.6992L142.941 58.7131L137.352 61.9663L137.352 61.9664C135.708 62.9234 133.774 63.2487 131.909 62.8818L131.909 62.8818L126.28 61.7752L125.872 61.4084Z" fill="white" stroke="black" stroke-width="0.5"/>
<path d="M156.939 71.8445L156.939 71.8444C156.978 71.8303 157.016 71.8116 157.05 71.7887L157.05 71.7886C157.113 71.7473 157.167 71.693 157.208 71.6294C157.248 71.5658 157.275 71.4943 157.287 71.4195L156.939 71.8445ZM156.939 71.8445C156.836 71.8815 156.725 71.8863 156.62 71.8584C156.62 71.8584 156.62 71.8583 156.62 71.8583L155.181 71.4742C155.181 71.4742 155.18 71.4742 155.18 71.4742C155.074 71.4455 154.979 71.3849 154.908 71.3002C154.838 71.2156 154.794 71.111 154.784 71.0007C154.784 71.0006 154.784 71.0005 154.784 71.0004L154.296 65.3755L154.292 65.3213L154.265 65.274L149.215 56.3484C149.117 56.0716 149.072 55.7782 149.085 55.4844C149.097 55.1838 149.168 54.8887 149.294 54.6159C149.421 54.343 149.599 54.0979 149.819 53.8944C150.04 53.691 150.298 53.5332 150.58 53.43C150.861 53.3268 151.16 53.2803 151.459 53.2931C151.758 53.3059 152.052 53.3777 152.323 53.5045C152.595 53.6313 152.839 53.8106 153.041 54.0321C153.244 54.2537 153.401 54.5132 153.503 54.7958L153.513 54.8216L153.527 54.8447L157.005 60.3098L157.005 60.3098C158.028 61.9173 158.435 63.8432 158.149 65.729L158.149 65.7291L157.287 71.4194L156.939 71.8445Z" fill="white" stroke="black" stroke-width="0.5"/>
<path d="M141.276 53.4833L141.276 53.4842C140.557 54.2676 140.022 55.203 139.711 56.2215C139.4 57.2399 139.321 58.3154 139.479 59.3687L139.479 59.3692L140.492 66.192L140.496 66.2203L140.494 66.2488L139.687 76.2944C139.687 76.2944 139.687 76.2944 139.687 76.2944C139.681 76.3686 139.69 76.4431 139.714 76.5134L139.478 76.5945L139.714 76.5134C139.738 76.5836 139.777 76.6481 139.827 76.7026C139.877 76.7572 139.938 76.8006 140.005 76.8304C140.073 76.8601 140.146 76.8754 140.22 76.8755L141.276 53.4833ZM141.276 53.4833C141.987 52.701 142.864 52.089 143.842 51.6922C144.82 51.2955 145.874 51.1241 146.927 51.1908L146.927 51.1908M141.276 53.4833L146.927 51.1908M146.927 51.1908C146.997 51.1952 147.067 51.2001 147.137 51.2056L147.143 51.2061M146.927 51.1908L147.143 51.2061M147.143 51.2061C148.139 51.2859 149.106 51.5777 149.98 52.062C150.857 52.5473 151.619 53.2147 152.218 54.0198L152.218 54.02C152.827 54.8367 153.255 55.7746 153.474 56.7708C153.693 57.767 153.697 58.7986 153.487 59.7966L153.487 59.7967C152.647 63.7858 152.86 67.9259 154.104 71.8073L154.104 71.8074L155.253 75.3891L155.253 75.3892C155.278 75.4676 155.285 75.5508 155.273 75.6324C155.261 75.714 155.231 75.7916 155.185 75.8594C155.138 75.9272 155.077 75.9833 155.005 76.0235C154.934 76.0636 154.854 76.0867 154.773 76.0911L154.773 76.0911L149.049 76.3999L147.622 73.9262L147.155 73.1175V74.0511V76.5021L140.249 76.8746L140.247 76.8747C140.239 76.8752 140.23 76.8755 140.22 76.8755L147.143 51.2061Z" fill="white" stroke="black" stroke-width="0.5"/>
<path d="M143.765 45.6522L143.765 45.6515C143.812 45.4374 143.808 45.2155 143.755 45.0031C143.701 44.7907 143.6 44.5935 143.458 44.427C143.315 44.2606 143.137 44.1294 142.935 44.0438C142.734 43.9584 142.516 43.9208 142.298 43.9341C142.175 43.9411 142.048 43.9541 141.927 43.9665C141.89 43.9703 141.854 43.9741 141.818 43.9776C141.662 43.9928 141.516 44.0041 141.378 44.0013C141.104 43.996 140.876 43.9373 140.68 43.7613L140.514 43.9465L140.68 43.7613C140.546 43.6407 140.436 43.3895 140.387 43.072C140.339 42.7609 140.361 42.4464 140.431 42.2429C140.48 42.101 140.605 41.9522 140.815 41.8018C141.022 41.6533 141.289 41.5195 141.584 41.3995C142.048 41.2104 142.549 41.0676 142.947 40.9541C143.056 40.923 143.158 40.894 143.249 40.867C144.224 40.5843 145.25 40.5232 146.252 40.6882C147.254 40.8532 148.207 41.2401 149.042 41.8208C149.543 42.1755 149.976 42.5981 150.17 43.122C150.365 43.6474 150.254 44.27 149.867 44.5761L149.653 44.7451L149.84 44.9436C150.195 45.3206 150.445 45.7847 150.565 46.2893C150.684 46.7934 150.67 47.3202 150.524 47.8171C150.423 48.1403 150.118 48.4888 149.729 48.8143C149.347 49.1331 148.921 49.4002 148.632 49.5672C148.57 49.6027 148.432 49.6491 148.233 49.6875C148.042 49.7244 147.819 49.7494 147.605 49.7545C147.389 49.7597 147.196 49.744 147.06 49.7078C146.959 49.681 146.927 49.6544 146.92 49.6475C146.89 49.519 146.886 49.3807 146.894 49.2254C146.898 49.147 146.906 49.0673 146.914 48.9831C146.914 48.9757 146.915 48.9683 146.916 48.9608C146.923 48.8846 146.931 48.8043 146.936 48.7242C146.959 48.3783 146.935 47.9164 146.633 47.5892C146.349 47.282 145.965 47.2261 145.634 47.2146C145.526 47.2108 145.41 47.2118 145.301 47.2127C145.245 47.2132 145.19 47.2136 145.139 47.2134C144.981 47.2127 144.839 47.2063 144.71 47.1823C144.412 47.1146 144.149 46.9409 143.969 46.693C143.789 46.445 143.705 46.1399 143.732 45.8343C143.739 45.777 143.751 45.7171 143.765 45.6522Z" fill="#7247FF" stroke="black" stroke-width="0.5"/>
</g>
<defs>
<linearGradient id="paint0_linear_55:1706" x1="28.3286" y1="72.2745" x2="43.5215" y2="72.3338" gradientUnits="userSpaceOnUse">
<stop stop-color="#4614E8"/>
<stop offset="1" stop-color="#BCA7FF"/>
</linearGradient>
<linearGradient id="paint1_linear_55:1706" x1="112.454" y1="44.876" x2="124.457" y2="47.632" gradientUnits="userSpaceOnUse">
<stop stop-color="#4614E8"/>
<stop offset="1" stop-color="#BCA7FF"/>
</linearGradient>
<linearGradient id="paint2_linear_55:1706" x1="17.09" y1="26.5453" x2="23.6755" y2="31.0959" gradientUnits="userSpaceOnUse">
<stop stop-color="#4614E8"/>
<stop offset="1" stop-color="#BCA7FF"/>
</linearGradient>
<linearGradient id="paint3_linear_55:1706" x1="25.7813" y1="20.3083" x2="34.2925" y2="23.5291" gradientUnits="userSpaceOnUse">
<stop stop-color="#4614E8"/>
<stop offset="1" stop-color="#BCA7FF"/>
</linearGradient>
<linearGradient id="paint4_linear_55:1706" x1="34.4724" y1="26.5453" x2="41.0579" y2="31.0959" gradientUnits="userSpaceOnUse">
<stop stop-color="#4614E8"/>
<stop offset="1" stop-color="#BCA7FF"/>
</linearGradient>
<linearGradient id="paint5_linear_55:1706" x1="43.1638" y1="17.8466" x2="51.9845" y2="20.6787" gradientUnits="userSpaceOnUse">
<stop stop-color="#4614E8"/>
<stop offset="1" stop-color="#BCA7FF"/>
</linearGradient>
<linearGradient id="paint6_linear_55:1706" x1="51.8551" y1="13.4147" x2="61.0029" y2="15.7224" gradientUnits="userSpaceOnUse">
<stop stop-color="#4614E8"/>
<stop offset="1" stop-color="#BCA7FF"/>
</linearGradient>
<clipPath id="clip0_55:1706">
<rect width="160" height="112" fill="white"/>
</clipPath>
</defs>
</svg>
