<svg width="23" height="23" viewBox="0 0 23 23" fill="none" xmlns="http://www.w3.org/2000/svg">
<path d="M0.45334 18.778C2.58276 20.1293 5.06101 20.8432 7.61976 20.8432C11.3668 20.8432 14.8006 19.4038 17.2893 16.7904C19.6708 14.2892 20.9808 10.9283 20.9157 7.51759C21.8184 6.74518 22.8803 5.2703 22.8803 3.8328C22.8803 3.28176 22.2823 2.93197 21.7973 3.21276C20.9492 3.71109 20.1758 3.84143 19.3804 3.61814C17.756 2.03497 15.3382 1.70147 13.3008 2.79972C11.5202 3.75805 10.5302 5.5118 10.6193 7.42847C7.61113 7.06143 4.83197 5.55301 2.89422 3.20893C2.57605 2.82655 1.9723 2.87159 1.7193 3.30476C0.785882 4.90326 0.795465 6.75572 1.60717 8.25168C1.22097 8.31972 0.98234 8.64459 0.98234 8.9963C0.98234 10.4999 1.65892 11.8818 2.74855 12.8248C2.54538 13.0203 2.4783 13.3107 2.56455 13.5695C3.04372 15.0089 4.12855 16.134 5.48459 16.6975C4.00972 17.4018 2.37863 17.6366 0.926757 17.4584C0.175424 17.3568 -0.195451 18.3669 0.45334 18.778ZM7.81622 16.9438C8.35384 16.5307 8.06826 15.6701 7.39359 15.6558C6.20526 15.6308 5.1233 15.0453 4.44959 14.1243C4.77447 14.1033 5.11084 14.0534 5.43092 13.9672C6.16021 13.7698 6.12572 12.7175 5.38492 12.569C4.04038 12.2987 2.98526 11.3193 2.58947 10.0581C2.95076 10.1473 3.31876 10.1971 3.6858 10.2038C4.41317 10.2076 4.68822 9.27518 4.09501 8.88514C2.75813 8.00443 2.18792 6.44905 2.56551 4.98664C4.90001 7.3518 8.0673 8.77684 11.4176 8.93784C11.8978 8.96755 12.2581 8.51618 12.1527 8.05905C11.6975 6.08584 12.7995 4.70297 13.9831 4.06568C15.1542 3.43318 17.0344 3.23576 18.4758 4.74801C18.9041 5.19939 20.3493 5.21664 21.0843 5.04509C20.7547 5.66609 20.2477 6.25547 19.7733 6.58705C19.5711 6.72889 19.4552 6.96464 19.4676 7.21093C19.6219 10.3591 18.4489 13.489 16.2495 15.7976C14.0339 18.1235 10.9701 19.4048 7.62072 19.4048C6.28863 19.4048 4.98242 19.1882 3.74809 18.7703C5.22392 18.4848 6.62597 17.8599 7.81622 16.9438Z" fill="#273895"/>
<path d="M7.81622 16.9438C8.35384 16.5307 8.06826 15.6701 7.39359 15.6558C6.20526 15.6308 5.1233 15.0453 4.44959 14.1243C4.77447 14.1033 5.11084 14.0534 5.43092 13.9672C6.16021 13.7698 6.12572 12.7175 5.38492 12.569C4.04038 12.2987 2.98526 11.3193 2.58947 10.0581C2.95076 10.1473 3.31876 10.1971 3.6858 10.2038C4.41317 10.2076 4.68822 9.27518 4.09501 8.88514C2.75813 8.00443 2.18792 6.44905 2.56551 4.98664C4.90001 7.3518 8.0673 8.77684 11.4176 8.93784C11.8978 8.96755 12.2581 8.51618 12.1527 8.05905C11.6975 6.08584 12.7995 4.70297 13.9831 4.06568C15.1542 3.43318 17.0344 3.23576 18.4758 4.74801C18.9041 5.19939 20.3493 5.21664 21.0843 5.04509C20.7547 5.66609 20.2477 6.25547 19.7733 6.58705C19.5711 6.72889 19.4552 6.96464 19.4676 7.21093C19.6219 10.3591 18.4489 13.489 16.2495 15.7976C14.0339 18.1235 10.9701 19.4048 7.62072 19.4048C6.28863 19.4048 4.98242 19.1882 3.74809 18.7703C5.22392 18.4848 6.62597 17.8599 7.81622 16.9438Z" fill="#273895"/>
</svg>
